<svg width="70" height="70" viewBox="0 0 70 70" fill="none" xmlns="http://www.w3.org/2000/svg">
<rect width="70" height="70" rx="20" fill="#1DA1F2"/>
<path d="M39.8891 53.5649C39.9698 53.7464 40.1102 53.9012 40.2913 54.0087C40.4724 54.1161 40.6856 54.1711 40.9024 54.166C41.1191 54.161 41.3289 54.0964 41.5037 53.9807C41.6785 53.865 41.8099 53.7039 41.8802 53.5189L55.6927 17.1022C55.7607 16.9324 55.7737 16.7486 55.7301 16.5724C55.6866 16.3961 55.5882 16.2347 55.4467 16.1071C55.3051 15.9794 55.1262 15.8907 54.9308 15.8514C54.7354 15.8121 54.5316 15.8238 54.3433 15.8852L13.9683 28.3435C13.7633 28.4069 13.5846 28.5254 13.4564 28.6831C13.3281 28.8407 13.2564 29.03 13.2508 29.2255C13.2453 29.4209 13.3062 29.6133 13.4253 29.7766C13.5444 29.94 13.7161 30.0666 13.9173 30.1394L30.7686 36.2344C31.3013 36.4268 31.7853 36.7144 32.1914 37.0801C32.5975 37.4457 32.9173 37.8818 33.1316 38.3619L39.8891 53.5649Z" stroke="#FBFBFE" stroke-width="3" stroke-linecap="round" stroke-linejoin="round"/>
<path d="M55.4396 16.115L32.1921 37.0814" stroke="#FBFBFE" stroke-width="3" stroke-linecap="round" stroke-linejoin="round"/>
</svg>
